<svg xmlns="http://www.w3.org/2000/svg" width="1280" height="640" viewBox="0 0 1280 640">
  <defs>
    <linearGradient id="bg" x1="0" y1="0" x2="1" y2="1">
      <stop offset="0%" stop-color="#082f3a"/>
      <stop offset="55%" stop-color="#0b1214"/>
      <stop offset="100%" stop-color="#0e7490"/>
    </linearGradient>
    <linearGradient id="coin" x1="0" y1="0" x2="1" y2="1">
      <stop offset="0%" stop-color="#67e8f9"/>
      <stop offset="100%" stop-color="#22d3ee"/>
    </linearGradient>
  </defs>

  <rect width="1280" height="640" fill="url(#bg)"/>

  <ellipse cx="1020" cy="430" rx="340" ry="90" fill="#a5f3fc" fill-opacity="0.08"/>
  <ellipse cx="1020" cy="400" rx="250" ry="62" fill="#a5f3fc" fill-opacity="0.10"/>
  <ellipse cx="1020" cy="372" rx="170" ry="40" fill="#a5f3fc" fill-opacity="0.12"/>

  <g transform="translate(108, 188)">
    <rect width="168" height="168" rx="46" fill="#0e7490"/>
    <rect x="42" y="47" width="84" height="79" rx="13" fill="#ffffff"/>
    <path d="M58 47V39M110 47V39" stroke="#155e75" stroke-width="8" stroke-linecap="round"/>
    <rect x="58" y="68" width="21" height="16" rx="3" fill="#06b6d4"/>
    <rect x="89" y="68" width="21" height="16" rx="3" fill="#a5f3fc"/>
    <rect x="58" y="94" width="52" height="12" rx="3" fill="#0e7490"/>
  </g>

  <text x="312" y="268" fill="#ffffff" font-family="Segoe UI, Helvetica Neue, Arial, sans-serif" font-size="92" font-weight="700" letter-spacing="-2">Due</text>
  <text x="312" y="338" fill="#a5f3fc" font-family="Segoe UI, Helvetica Neue, Arial, sans-serif" font-size="34" font-weight="500">Standing USDC orders on Base</text>

  <g font-family="Segoe UI, Helvetica Neue, Arial, sans-serif" font-size="22" font-weight="600">
    <rect x="312" y="382" width="92" height="42" rx="21" fill="#155e75"/>
    <text x="358" y="410" fill="#ecfeff" text-anchor="middle">USDC</text>
    <rect x="416" y="382" width="88" height="42" rx="21" fill="#155e75"/>
    <text x="460" y="410" fill="#ecfeff" text-anchor="middle">Base</text>
    <rect x="516" y="382" width="210" height="42" rx="21" fill="#155e75"/>
    <text x="621" y="410" fill="#ecfeff" text-anchor="middle">StandingOrder</text>
  </g>
</svg>
